<?xml version="1.0" encoding="UTF-8" standalone="no"?>
<!DOCTYPE svg PUBLIC "-//W3C//DTD SVG 1.1//EN" "http://www.w3.org/Graphics/SVG/1.1/DTD/svg11.dtd">
<svg width="100%" height="100%" viewBox="0 0 64 64" version="1.1" xmlns="http://www.w3.org/2000/svg" xmlns:xlink="http://www.w3.org/1999/xlink" xml:space="preserve" xmlns:serif="http://www.serif.com/" style="fill-rule:evenodd;clip-rule:evenodd;stroke-linejoin:round;stroke-miterlimit:2;">
    <g transform="matrix(1,0,0,1,32,36)">
        <g transform="matrix(9,0,0,9,-29.753174,0)">
            <path d="M0.072265625,-0.7158203125L0.33642578125,-0.7158203125C0.39599609375,-0.7158203125 0.44140625,-0.711263020833 0.47265625,-0.7021484375C0.5146484375,-0.689778645833 0.550618489583,-0.667805989583 0.58056640625,-0.63623046875C0.610514322917,-0.604654947917 0.63330078125,-0.565999348958 0.64892578125,-0.520263671875C0.66455078125,-0.474527994792 0.67236328125,-0.418131510417 0.67236328125,-0.35107421875C0.67236328125,-0.292154947917 0.6650390625,-0.241373697917 0.650390625,-0.19873046875C0.632486979167,-0.146647135417 0.60693359375,-0.1044921875 0.57373046875,-0.072265625C0.548665364583,-0.0478515625 0.514811197917,-0.02880859375 0.47216796875,-0.01513671875C0.440266927083,-0.005045572917 0.397623697917,-0 0.34423828125,-0L0.072265625,-0L0.072265625,-0.7158203125ZM0.216796875,-0.5947265625L0.216796875,-0.12060546875L0.32470703125,-0.12060546875C0.365071614583,-0.12060546875 0.394205729167,-0.122884114583 0.412109375,-0.12744140625C0.435546875,-0.13330078125 0.454996744792,-0.143229166667 0.470458984375,-0.1572265625C0.485921223958,-0.171223958333 0.49853515625,-0.194254557292 0.50830078125,-0.226318359375C0.51806640625,-0.258382161458 0.52294921875,-0.302083333333 0.52294921875,-0.357421875C0.52294921875,-0.412760416667 0.51806640625,-0.455240885417 0.50830078125,-0.48486328125C0.49853515625,-0.514485677083 0.48486328125,-0.53759765625 0.46728515625,-0.55419921875C0.44970703125,-0.57080078125 0.427408854167,-0.58203125 0.400390625,-0.587890625C0.380208333333,-0.592447916667 0.340657552083,-0.5947265625 0.28173828125,-0.5947265625L0.216796875,-0.5947265625Z" style="fill:rgb(23,23,26);fill-rule:nonzero;"/>
        </g>
        <g transform="matrix(9,0,0,9,-23.253662,0)">
            <path d="M0.3720703125,-0.1650390625L0.5087890625,-0.14208984375C0.4912109375,-0.091959635417 0.463460286458,-0.053792317708 0.425537109375,-0.027587890625C0.387613932292,-0.001383463542 0.340169270833,0.01171875 0.283203125,0.01171875C0.193033854167,0.01171875 0.126302083333,-0.017740885417 0.0830078125,-0.07666015625C0.048828125,-0.123860677083 0.03173828125,-0.183430989583 0.03173828125,-0.25537109375C0.03173828125,-0.34130859375 0.05419921875,-0.408610026042 0.09912109375,-0.457275390625C0.14404296875,-0.505940755208 0.200846354167,-0.5302734375 0.26953125,-0.5302734375C0.3466796875,-0.5302734375 0.407552083333,-0.504801432292 0.4521484375,-0.453857421875C0.496744791667,-0.402913411458 0.51806640625,-0.324869791667 0.51611328125,-0.2197265625L0.17236328125,-0.2197265625C0.17333984375,-0.179036458333 0.184407552083,-0.147379557292 0.20556640625,-0.124755859375C0.226725260417,-0.102132161458 0.253092447917,-0.0908203125 0.28466796875,-0.0908203125C0.30615234375,-0.0908203125 0.32421875,-0.0966796875 0.3388671875,-0.1083984375C0.353515625,-0.1201171875 0.364583333333,-0.138997395833 0.3720703125,-0.1650390625ZM0.3798828125,-0.3037109375C0.37890625,-0.343424479167 0.36865234375,-0.373616536458 0.34912109375,-0.394287109375C0.32958984375,-0.414957682292 0.305826822917,-0.42529296875 0.27783203125,-0.42529296875C0.247884114583,-0.42529296875 0.22314453125,-0.414388020833 0.20361328125,-0.392578125C0.18408203125,-0.370768229167 0.174479166667,-0.341145833333 0.1748046875,-0.3037109375L0.3798828125,-0.3037109375Z" style="fill:rgb(23,23,26);fill-rule:nonzero;"/>
        </g>
        <g transform="matrix(9,0,0,9,-18.248291,0)">
            <path d="M0.17431640625,-0.3603515625L0.0498046875,-0.3828125C0.063802083333,-0.432942708333 0.087890625,-0.470052083333 0.1220703125,-0.494140625C0.15625,-0.518229166667 0.20703125,-0.5302734375 0.2744140625,-0.5302734375C0.335611979167,-0.5302734375 0.381184895833,-0.523030598958 0.4111328125,-0.508544921875C0.441080729167,-0.494059244792 0.462158203125,-0.475667317708 0.474365234375,-0.453369140625C0.486572265625,-0.431070963542 0.49267578125,-0.39013671875 0.49267578125,-0.33056640625L0.4912109375,-0.17041015625C0.4912109375,-0.124837239583 0.493408203125,-0.091227213542 0.497802734375,-0.069580078125C0.502197265625,-0.047932942708 0.510416666667,-0.024739583333 0.5224609375,-0L0.38671875,-0C0.383138020833,-0.009114583333 0.378743489583,-0.022623697917 0.37353515625,-0.04052734375C0.371256510417,-0.048665364583 0.36962890625,-0.054036458333 0.36865234375,-0.056640625C0.34521484375,-0.033854166667 0.320149739583,-0.016764322917 0.29345703125,-0.00537109375C0.266764322917,0.006022135417 0.23828125,0.01171875 0.2080078125,0.01171875C0.154622395833,0.01171875 0.112548828125,-0.002766927083 0.081787109375,-0.03173828125C0.051025390625,-0.060709635417 0.03564453125,-0.097330729167 0.03564453125,-0.1416015625C0.03564453125,-0.1708984375 0.042643229167,-0.197021484375 0.056640625,-0.219970703125C0.070638020833,-0.242919921875 0.090250651042,-0.260498046875 0.115478515625,-0.272705078125C0.140706380208,-0.284912109375 0.177083333333,-0.295572916667 0.224609375,-0.3046875C0.288736979167,-0.316731770833 0.333170572917,-0.327962239583 0.35791015625,-0.33837890625L0.35791015625,-0.35205078125C0.35791015625,-0.37841796875 0.351399739583,-0.397216796875 0.33837890625,-0.408447265625C0.325358072917,-0.419677734375 0.30078125,-0.42529296875 0.2646484375,-0.42529296875C0.240234375,-0.42529296875 0.22119140625,-0.420491536458 0.20751953125,-0.410888671875C0.19384765625,-0.401285807292 0.182779947917,-0.384440104167 0.17431640625,-0.3603515625ZM0.35791015625,-0.2490234375C0.34033203125,-0.2431640625 0.3125,-0.236165364583 0.2744140625,-0.22802734375C0.236328125,-0.219889322917 0.21142578125,-0.2119140625 0.19970703125,-0.2041015625C0.181803385417,-0.19140625 0.1728515625,-0.17529296875 0.1728515625,-0.15576171875C0.1728515625,-0.136555989583 0.180013020833,-0.119954427083 0.1943359375,-0.10595703125C0.208658854167,-0.091959635417 0.226888020833,-0.0849609375 0.2490234375,-0.0849609375C0.273763020833,-0.0849609375 0.29736328125,-0.093098958333 0.31982421875,-0.109375C0.33642578125,-0.121744791667 0.347330729167,-0.136881510417 0.3525390625,-0.15478515625C0.356119791667,-0.16650390625 0.35791015625,-0.188802083333 0.35791015625,-0.2216796875L0.35791015625,-0.2490234375Z" style="fill:rgb(23,23,26);fill-rule:nonzero;"/>
        </g>
        <g transform="matrix(9,0,0,9,-13.24292,0)">
            <path d="M0.54736328125,-0L0.419921875,-0L0.419921875,-0.076171875C0.398763020833,-0.046549479167 0.373779296875,-0.024495442708 0.344970703125,-0.010009765625C0.316162109375,0.004475911458 0.287109375,0.01171875 0.2578125,0.01171875C0.1982421875,0.01171875 0.147216796875,-0.012288411458 0.104736328125,-0.060302734375C0.062255859375,-0.108317057292 0.041015625,-0.17529296875 0.041015625,-0.26123046875C0.041015625,-0.34912109375 0.061686197917,-0.415934244792 0.10302734375,-0.461669921875C0.144368489583,-0.507405598958 0.196614583333,-0.5302734375 0.259765625,-0.5302734375C0.317708333333,-0.5302734375 0.367838541667,-0.506184895833 0.41015625,-0.4580078125L0.41015625,-0.7158203125L0.54736328125,-0.7158203125L0.54736328125,-0ZM0.18115234375,-0.2705078125C0.18115234375,-0.215169270833 0.188802083333,-0.175130208333 0.2041015625,-0.150390625C0.226236979167,-0.114583333333 0.257161458333,-0.0966796875 0.296875,-0.0966796875C0.328450520833,-0.0966796875 0.355305989583,-0.110107421875 0.37744140625,-0.136962890625C0.399576822917,-0.163818359375 0.41064453125,-0.203938802083 0.41064453125,-0.25732421875C0.41064453125,-0.31689453125 0.39990234375,-0.359781901042 0.37841796875,-0.385986328125C0.35693359375,-0.412190755208 0.329427083333,-0.42529296875 0.2958984375,-0.42529296875C0.263346354167,-0.42529296875 0.236083984375,-0.412353515625 0.214111328125,-0.386474609375C0.192138671875,-0.360595703125 0.18115234375,-0.321940104167 0.18115234375,-0.2705078125Z" style="fill:rgb(23,23,26);fill-rule:nonzero;"/>
        </g>
        <g transform="matrix(9,0,0,9,-7.745361,0)">
            <path d="M0.07080078125,-0L0.07080078125,-0.7158203125L0.287109375,-0.7158203125L0.4169921875,-0.2275390625L0.54541015625,-0.7158203125L0.76220703125,-0.7158203125L0.76220703125,-0L0.6279296875,-0L0.6279296875,-0.5634765625L0.48583984375,-0L0.3466796875,-0L0.205078125,-0.5634765625L0.205078125,-0L0.07080078125,-0Z" style="fill:rgb(23,23,26);fill-rule:nonzero;"/>
        </g>
        <g transform="matrix(9,0,0,9,-0.248291,0)">
            <path d="M0.17431640625,-0.3603515625L0.0498046875,-0.3828125C0.063802083333,-0.432942708333 0.087890625,-0.470052083333 0.1220703125,-0.494140625C0.15625,-0.518229166667 0.20703125,-0.5302734375 0.2744140625,-0.5302734375C0.335611979167,-0.5302734375 0.381184895833,-0.523030598958 0.4111328125,-0.508544921875C0.441080729167,-0.494059244792 0.462158203125,-0.475667317708 0.474365234375,-0.453369140625C0.486572265625,-0.431070963542 0.49267578125,-0.39013671875 0.49267578125,-0.33056640625L0.4912109375,-0.17041015625C0.4912109375,-0.124837239583 0.493408203125,-0.091227213542 0.497802734375,-0.069580078125C0.502197265625,-0.047932942708 0.510416666667,-0.024739583333 0.5224609375,-0L0.38671875,-0C0.383138020833,-0.009114583333 0.378743489583,-0.022623697917 0.37353515625,-0.04052734375C0.371256510417,-0.048665364583 0.36962890625,-0.054036458333 0.36865234375,-0.056640625C0.34521484375,-0.033854166667 0.320149739583,-0.016764322917 0.29345703125,-0.00537109375C0.266764322917,0.006022135417 0.23828125,0.01171875 0.2080078125,0.01171875C0.154622395833,0.01171875 0.112548828125,-0.002766927083 0.081787109375,-0.03173828125C0.051025390625,-0.060709635417 0.03564453125,-0.097330729167 0.03564453125,-0.1416015625C0.03564453125,-0.1708984375 0.042643229167,-0.197021484375 0.056640625,-0.219970703125C0.070638020833,-0.242919921875 0.090250651042,-0.260498046875 0.115478515625,-0.272705078125C0.140706380208,-0.284912109375 0.177083333333,-0.295572916667 0.224609375,-0.3046875C0.288736979167,-0.316731770833 0.333170572917,-0.327962239583 0.35791015625,-0.33837890625L0.35791015625,-0.35205078125C0.35791015625,-0.37841796875 0.351399739583,-0.397216796875 0.33837890625,-0.408447265625C0.325358072917,-0.419677734375 0.30078125,-0.42529296875 0.2646484375,-0.42529296875C0.240234375,-0.42529296875 0.22119140625,-0.420491536458 0.20751953125,-0.410888671875C0.19384765625,-0.401285807292 0.182779947917,-0.384440104167 0.17431640625,-0.3603515625ZM0.35791015625,-0.2490234375C0.34033203125,-0.2431640625 0.3125,-0.236165364583 0.2744140625,-0.22802734375C0.236328125,-0.219889322917 0.21142578125,-0.2119140625 0.19970703125,-0.2041015625C0.181803385417,-0.19140625 0.1728515625,-0.17529296875 0.1728515625,-0.15576171875C0.1728515625,-0.136555989583 0.180013020833,-0.119954427083 0.1943359375,-0.10595703125C0.208658854167,-0.091959635417 0.226888020833,-0.0849609375 0.2490234375,-0.0849609375C0.273763020833,-0.0849609375 0.29736328125,-0.093098958333 0.31982421875,-0.109375C0.33642578125,-0.121744791667 0.347330729167,-0.136881510417 0.3525390625,-0.15478515625C0.356119791667,-0.16650390625 0.35791015625,-0.188802083333 0.35791015625,-0.2216796875L0.35791015625,-0.2490234375Z" style="fill:rgb(23,23,26);fill-rule:nonzero;"/>
        </g>
        <g transform="matrix(9,0,0,9,4.75708,0)">
            <path d="M0.54345703125,-0L0.40625,-0L0.40625,-0.2646484375C0.40625,-0.320638020833 0.4033203125,-0.356852213542 0.3974609375,-0.373291015625C0.3916015625,-0.389729817708 0.382080078125,-0.402506510417 0.368896484375,-0.41162109375C0.355712890625,-0.420735677083 0.33984375,-0.42529296875 0.3212890625,-0.42529296875C0.297526041667,-0.42529296875 0.276204427083,-0.418782552083 0.25732421875,-0.40576171875C0.238444010417,-0.392740885417 0.225504557292,-0.37548828125 0.218505859375,-0.35400390625C0.211507161458,-0.33251953125 0.2080078125,-0.292805989583 0.2080078125,-0.23486328125L0.2080078125,-0L0.07080078125,-0L0.07080078125,-0.5185546875L0.1982421875,-0.5185546875L0.1982421875,-0.4423828125C0.243489583333,-0.5009765625 0.300455729167,-0.5302734375 0.369140625,-0.5302734375C0.3994140625,-0.5302734375 0.427083333333,-0.524820963542 0.4521484375,-0.513916015625C0.477213541667,-0.503011067708 0.496175130208,-0.489095052083 0.509033203125,-0.47216796875C0.521891276042,-0.455240885417 0.530843098958,-0.43603515625 0.535888671875,-0.41455078125C0.540934244792,-0.39306640625 0.54345703125,-0.3623046875 0.54345703125,-0.322265625L0.54345703125,-0Z" style="fill:rgb(23,23,26);fill-rule:nonzero;"/>
        </g>
        <g transform="matrix(9,0,0,9,10.254639,0)">
            <path d="M0.07275390625,-0L0.07275390625,-0.7158203125L0.3046875,-0.7158203125C0.392578125,-0.7158203125 0.449869791667,-0.712239583333 0.4765625,-0.705078125C0.517578125,-0.6943359375 0.551920572917,-0.670979817708 0.57958984375,-0.635009765625C0.607259114583,-0.599039713542 0.62109375,-0.552571614583 0.62109375,-0.49560546875C0.62109375,-0.45166015625 0.613118489583,-0.414713541667 0.59716796875,-0.384765625C0.581217447917,-0.354817708333 0.560953776042,-0.331298828125 0.536376953125,-0.314208984375C0.511800130208,-0.297119140625 0.48681640625,-0.285807291667 0.46142578125,-0.2802734375C0.426920572917,-0.2734375 0.376953125,-0.27001953125 0.3115234375,-0.27001953125L0.21728515625,-0.27001953125L0.21728515625,-0L0.07275390625,-0ZM0.21728515625,-0.5947265625L0.21728515625,-0.3916015625L0.29638671875,-0.3916015625C0.353352864583,-0.3916015625 0.391438802083,-0.395345052083 0.41064453125,-0.40283203125C0.429850260417,-0.410319010417 0.444905598958,-0.422037760417 0.455810546875,-0.43798828125C0.466715494792,-0.453938802083 0.47216796875,-0.472493489583 0.47216796875,-0.49365234375C0.47216796875,-0.519694010417 0.464518229167,-0.541178385417 0.44921875,-0.55810546875C0.433919270833,-0.575032552083 0.41455078125,-0.585611979167 0.39111328125,-0.58984375C0.373860677083,-0.593098958333 0.339192708333,-0.5947265625 0.287109375,-0.5947265625L0.21728515625,-0.5947265625Z" style="fill:rgb(15,148,134);fill-rule:nonzero;"/>
        </g>
        <g transform="matrix(9,0,0,9,16.257568,0)">
            <path d="M0.07177734375,-0.5888671875L0.07177734375,-0.7158203125L0.208984375,-0.7158203125L0.208984375,-0.5888671875L0.07177734375,-0.5888671875ZM0.07177734375,-0L0.07177734375,-0.5185546875L0.208984375,-0.5185546875L0.208984375,-0L0.07177734375,-0Z" style="fill:rgb(15,148,134);fill-rule:nonzero;"/>
        </g>
        <g transform="matrix(9,0,0,9,18.758057,0)">
            <path d="M0.54345703125,-0L0.40625,-0L0.40625,-0.2646484375C0.40625,-0.320638020833 0.4033203125,-0.356852213542 0.3974609375,-0.373291015625C0.3916015625,-0.389729817708 0.382080078125,-0.402506510417 0.368896484375,-0.41162109375C0.355712890625,-0.420735677083 0.33984375,-0.42529296875 0.3212890625,-0.42529296875C0.297526041667,-0.42529296875 0.276204427083,-0.418782552083 0.25732421875,-0.40576171875C0.238444010417,-0.392740885417 0.225504557292,-0.37548828125 0.218505859375,-0.35400390625C0.211507161458,-0.33251953125 0.2080078125,-0.292805989583 0.2080078125,-0.23486328125L0.2080078125,-0L0.07080078125,-0L0.07080078125,-0.5185546875L0.1982421875,-0.5185546875L0.1982421875,-0.4423828125C0.243489583333,-0.5009765625 0.300455729167,-0.5302734375 0.369140625,-0.5302734375C0.3994140625,-0.5302734375 0.427083333333,-0.524820963542 0.4521484375,-0.513916015625C0.477213541667,-0.503011067708 0.496175130208,-0.489095052083 0.509033203125,-0.47216796875C0.521891276042,-0.455240885417 0.530843098958,-0.43603515625 0.535888671875,-0.41455078125C0.540934244792,-0.39306640625 0.54345703125,-0.3623046875 0.54345703125,-0.322265625L0.54345703125,-0Z" style="fill:rgb(15,148,134);fill-rule:nonzero;"/>
        </g>
        <g transform="matrix(9,0,0,9,24.255615,0)">
            <path d="M0.05908203125,0.0341796875L0.2158203125,0.05322265625C0.218424479167,0.071451822917 0.224446614583,0.083984375 0.23388671875,0.0908203125C0.246907552083,0.1005859375 0.267415364583,0.10546875 0.29541015625,0.10546875C0.331217447917,0.10546875 0.358072916667,0.10009765625 0.3759765625,0.08935546875C0.388020833333,0.082194010417 0.397135416667,0.070638020833 0.4033203125,0.0546875C0.407552083333,0.043294270833 0.40966796875,0.022298177083 0.40966796875,-0.00830078125L0.40966796875,-0.083984375C0.36865234375,-0.027994791667 0.31689453125,-0 0.25439453125,-0C0.184733072917,-0 0.129557291667,-0.029459635417 0.0888671875,-0.08837890625C0.056966145833,-0.134928385417 0.041015625,-0.19287109375 0.041015625,-0.26220703125C0.041015625,-0.34912109375 0.061930338542,-0.41552734375 0.103759765625,-0.46142578125C0.145589192708,-0.50732421875 0.197591145833,-0.5302734375 0.259765625,-0.5302734375C0.323893229167,-0.5302734375 0.376790364583,-0.502115885417 0.41845703125,-0.44580078125L0.41845703125,-0.5185546875L0.546875,-0.5185546875L0.546875,-0.05322265625C0.546875,0.007975260417 0.541829427083,0.0537109375 0.53173828125,0.083984375C0.521647135417,0.1142578125 0.507486979167,0.138020833333 0.4892578125,0.1552734375C0.471028645833,0.172526041667 0.446695963542,0.18603515625 0.416259765625,0.19580078125C0.385823567708,0.20556640625 0.347330729167,0.21044921875 0.30078125,0.21044921875C0.212890625,0.21044921875 0.150553385417,0.195393880208 0.11376953125,0.165283203125C0.076985677083,0.135172526042 0.05859375,0.097005208333 0.05859375,0.05078125C0.05859375,0.046223958333 0.058756510417,0.040690104167 0.05908203125,0.0341796875ZM0.181640625,-0.27001953125C0.181640625,-0.215006510417 0.192301432292,-0.174723307292 0.213623046875,-0.149169921875C0.234944661458,-0.123616536458 0.26123046875,-0.11083984375 0.29248046875,-0.11083984375C0.326009114583,-0.11083984375 0.354329427083,-0.123942057292 0.37744140625,-0.150146484375C0.400553385417,-0.176350911458 0.412109375,-0.215169270833 0.412109375,-0.2666015625C0.412109375,-0.3203125 0.401041666667,-0.360188802083 0.37890625,-0.38623046875C0.356770833333,-0.412272135417 0.328776041667,-0.42529296875 0.294921875,-0.42529296875C0.262044270833,-0.42529296875 0.234944661458,-0.412516276042 0.213623046875,-0.386962890625C0.192301432292,-0.361409505208 0.181640625,-0.322428385417 0.181640625,-0.27001953125Z" style="fill:rgb(15,148,134);fill-rule:nonzero;"/>
        </g>
    </g>
</svg>
